<svg xmlns="http://www.w3.org/2000/svg" viewBox="0 0 48 48">
  <path d="M42.470703 3.9863281 A 1.50015 1.50015 0 0 0 41.439453 4.4394531L28.025391 17.853516C28.02058 17.85139 28.016533 17.847821 28.011719 17.845703L14.845703 31.009766C14.848052 31.015107 14.851157 31.020054 14.853516 31.025391L4.4394531 41.439453 A 1.50015 1.50015 0 1 0 6.5605469 43.560547L16.513672 33.607422C18.345732 35.683816 21.01901 37 24 37C29.514 37 34 32.514 34 27C34 24.019566 32.683637 21.345974 30.607422 19.513672L35.052734 15.068359C39.90447 17.90912 43.668811 22.496845 45.050781 27.869141C45.220781 28.549141 45.83 29 46.5 29C46.62 29 46.749141 28.989219 46.869141 28.949219C47.679141 28.749219 48.159219 27.930859 47.949219 27.130859C46.409379 21.128251 42.461227 16.073087 37.277344 12.84375L43.560547 6.5605469 A 1.50015 1.50015 0 0 0 42.470703 3.9863281 z M 23.990234 9C12.820234 9 2.7507813 16.620859 0.05078125 27.130859C-0.15921875 27.930859 0.32085937 28.749219 1.1308594 28.949219C1.9308594 29.159219 2.7492187 28.679141 2.9492188 27.869141C5.2792187 18.819141 14.330234 12 23.990234 12C25.700234 12 27.389531 12.209141 29.019531 12.619141L31.480469 10.160156C29.090469 9.4001562 26.570234 9 23.990234 9 z M 24 17C18.486 17 14 21.486 14 27C14 27.197 14.017297 27.390938 14.029297 27.585938L24.585938 17.029297C24.390937 17.017297 24.197 17 24 17 z M 25.632812 24.488281C26.454417 25.023417 27 25.946264 27 27C27 28.657 25.657 30 24 30C22.946264 30 22.023417 29.454417 21.488281 28.632812L25.632812 24.488281 z" fill="#FFFFFF" />
</svg>